<svg xmlns="http://www.w3.org/2000/svg" xmlns:xlink="http://www.w3.org/1999/xlink" xml:space="preserve" style="shape-rendering:geometricPrecision;text-rendering:geometricPrecision;image-rendering:optimizeQuality;" viewBox="0 0 100 125" x="0px" y="0px" fill-rule="evenodd" clip-rule="evenodd"><defs><style type="text/css">
   
    .fil0 {fill:black}
   
  </style></defs><g><path class="fil0" d="M8.1981 38.3826c-2.30789,-3.44058 -6.23745,-9.74653 0.794888,-17.7344 12.3202,-13.9926 69.6962,-13.9926 82.0164,0 7.03234,7.98786 3.10278,14.2938 0.794888,17.7344 -1.67718,2.50159 -11.7969,-0.745281 -15.6946,-3.44885 -3.73349,-2.58782 -6.74769,-5.24177 -3.49018,-8.24062 3.98271,-2.94805 2.09765,-5.71776 -2.07167,-7.06423 -10.6666,-3.44412 -30.4266,-3.44412 -41.0932,0 -4.16932,1.34647 -6.05438,4.11617 -2.07167,7.06423 3.25751,2.99884 0.243309,5.6528 -3.49018,8.24062 -3.89767,2.70356 -14.0174,5.95044 -15.6946,3.44885zm47.1464 -4.54492l0 -7.51305c0,-6.08627 8.2855,-6.08627 8.2855,0l0 7.76581c0.740557,0.0330711 1.4823,0.0673234 2.22403,0.105119 4.65476,0.459452 7.9666,1.3571 9.3674,3.11932 6.36737,9.6048 13.5745,20.171 18.0131,31.7046 0.99922,2.37522 1.28269,4.59807 1.07481,6.69808 -1.02048,4.34177 -2.50041,7.48116 -5.21815,11.1355 -20.921,3.92129 -60.6229,4.07365 -78.1801,0 -2.6953,-3.62483 -4.16106,-6.7406 -5.20752,-11.0399 -0.226773,-2.12836 0.0507878,-4.38311 1.06536,-6.79375 4.43862,-11.5336 11.6458,-22.0998 18.0131,-31.7046 1.4008,-1.76222 4.71264,-2.65986 9.3674,-3.11932 0.741738,-0.0377956 1.4823,-0.0720478 2.22285,-0.105119l0 -7.76581c0,-6.08627 8.2855,-6.08627 8.2855,0l0 7.51305c1.7823,-0.0307089 3.56341,-0.0460634 5.34335,-0.0460634 1.78112,0 3.56105,0.0153545 5.34335,0.0460634zm-41.7452 30.4609c-3.62601,6.14532 -5.16618,12.1406 0.739376,18.6143 1.6819,0.61654 4.24492,1.09843 5.928,1.05709 -6.73116,-5.56067 -8.4733,-12.469 -6.66738,-19.6714zm36.4019 -22.714c10.5107,0 19.0336,6.32131 19.0336,14.1166 0,7.79534 -8.52408,14.1166 -19.0336,14.1166 -10.5107,0 -19.0336,-6.32131 -19.0336,-14.1166 0,-7.79534 8.52408,-14.1166 19.0336,-14.1166zm42.0759 -10.7895c1.16812,-4.24373 -1.07717,-8.56188 -7.51069,-11.38 4.14098,2.69766 5.87603,7.04651 4.86972,10.5332 -0.589375,2.04096 1.95592,3.33192 2.64097,0.846857zm-69.3324 -4.10909c-6.43233,-4.52956 -2.57837,-9.34496 8.67408,-9.5611 -8.73786,1.87679 -9.85401,4.03113 -8.67408,9.5611z"/></g><text x="0" y="115" fill="#000000" font-size="5px" font-weight="bold" font-family="'Helvetica Neue', Helvetica, Arial-Unicode, Arial, Sans-serif">Created by Aulia</text><text x="0" y="120" fill="#000000" font-size="5px" font-weight="bold" font-family="'Helvetica Neue', Helvetica, Arial-Unicode, Arial, Sans-serif">from the Noun Project</text></svg>