<svg width="100" height="125" viewBox="0 0 100 125" fill="none" xmlns="http://www.w3.org/2000/svg">
<path fill-rule="evenodd" clip-rule="evenodd" d="M8.1981 38.3826C5.89021 34.942 1.96065 28.6361 8.99299 20.6482C21.3132 6.6556 78.6892 6.6556 91.0094 20.6482C98.0417 28.6361 94.1122 34.942 91.8043 38.3826C90.1271 40.8842 80.0074 37.6373 76.1097 34.9337C72.3762 32.3459 69.362 29.692 72.6195 26.6931C76.6022 23.7451 74.7171 20.9754 70.5478 19.6289C59.8812 16.1848 40.1212 16.1848 29.4546 19.6289C25.2853 20.9754 23.4002 23.7451 27.383 26.6931C30.6405 29.692 27.6263 32.3459 23.8928 34.9337C19.9951 37.6373 9.87538 40.8842 8.19818 38.3826H8.1981ZM55.3445 33.8377V26.3246C55.3445 20.2384 63.63 20.2384 63.63 26.3246V34.0904C64.3706 34.1235 65.1123 34.1578 65.854 34.1956C70.5088 34.655 73.8206 35.5527 75.2214 37.3149C81.5888 46.9197 88.7959 57.4859 93.2345 69.0195C94.2337 71.3947 94.5172 73.6175 94.3093 75.7176C93.2889 80.0593 91.8089 83.1987 89.0912 86.8531C68.1702 90.7743 28.4683 90.9267 10.9111 86.8531C8.21579 83.2282 6.75003 80.1125 5.70357 75.8132C5.4768 73.6848 5.75436 71.43 6.76893 69.0194C11.2076 57.4858 18.4147 46.9196 24.782 37.3148C26.1828 35.5526 29.4947 34.6549 34.1494 34.1955C34.8912 34.1577 35.6317 34.1234 36.3723 34.0904V26.3246C36.3723 20.2383 44.6578 20.2383 44.6578 26.3246V33.8376C46.4401 33.8069 48.2212 33.7915 50.0011 33.7915C51.7823 33.7915 53.5622 33.8069 55.3445 33.8376L55.3445 33.8377ZM13.5993 64.2986C9.97329 70.4439 8.43312 76.4392 14.3387 82.9129C16.0206 83.5294 18.5836 84.0113 20.2667 83.97C13.5355 78.4093 11.7934 71.501 13.5993 64.2986L13.5993 64.2986ZM50.0012 41.5846C60.5119 41.5846 69.0348 47.9059 69.0348 55.7012C69.0348 63.4965 60.5107 69.8178 50.0012 69.8178C39.4905 69.8178 30.9676 63.4965 30.9676 55.7012C30.9676 47.9058 39.4917 41.5846 50.0012 41.5846ZM92.0771 30.7951C93.2452 26.5513 90.9999 22.2332 84.5664 19.4151C88.7074 22.1127 90.4424 26.4616 89.4361 29.9483C88.8467 31.9892 91.3921 33.2802 92.0771 30.7951V30.7951ZM22.7447 26.686C16.3124 22.1564 20.1663 17.341 31.4188 17.1249C22.6809 19.0017 21.5648 21.156 22.7447 26.686Z" fill="black"/>
</svg>
